<svg width="102" height="102" viewBox="0 0 102 102" fill="none" xmlns="http://www.w3.org/2000/svg">
<path d="M76.5 33.9922H80.75C85.2587 33.9922 89.5827 35.7833 92.7708 38.9714C95.9589 42.1595 97.75 46.4835 97.75 50.9922C97.75 55.5009 95.9589 59.8249 92.7708 63.013C89.5827 66.2011 85.2587 67.9922 80.75 67.9922H76.5" stroke="white" stroke-width="8" stroke-linecap="round" stroke-linejoin="round"/>
<path d="M8.49805 33.9922H76.498V72.2422C76.498 76.7509 74.707 81.0749 71.5189 84.263C68.3307 87.4511 64.0067 89.2422 59.498 89.2422H25.498C20.9894 89.2422 16.6654 87.4511 13.4772 84.263C10.2891 81.0749 8.49805 76.7509 8.49805 72.2422V33.9922Z" stroke="white" stroke-width="8" stroke-linecap="round" stroke-linejoin="round"/>
<path d="M25.5 4.25781V17.0078" stroke="white" stroke-width="8" stroke-linecap="round" stroke-linejoin="round"/>
<path d="M42.502 4.25781V17.0078" stroke="white" stroke-width="8" stroke-linecap="round" stroke-linejoin="round"/>
<path d="M59.498 4.25781V17.0078" stroke="white" stroke-width="8" stroke-linecap="round" stroke-linejoin="round"/>
</svg>
