<svg width="102" height="102" viewBox="0 0 102 102" fill="none" xmlns="http://www.w3.org/2000/svg">
<path d="M50.998 55.2422C53.3453 55.2422 55.2481 53.3394 55.2481 50.9922C55.2481 48.645 53.3453 46.7422 50.998 46.7422C48.6508 46.7422 46.748 48.645 46.748 50.9922C46.748 53.3394 48.6508 55.2422 50.998 55.2422Z" stroke="white" stroke-width="8" stroke-linecap="round" stroke-linejoin="round"/>
<path d="M80.75 55.2422C83.0972 55.2422 85 53.3394 85 50.9922C85 48.645 83.0972 46.7422 80.75 46.7422C78.4028 46.7422 76.5 48.645 76.5 50.9922C76.5 53.3394 78.4028 55.2422 80.75 55.2422Z" stroke="white" stroke-width="8" stroke-linecap="round" stroke-linejoin="round"/>
<path d="M21.252 55.2422C23.5992 55.2422 25.502 53.3394 25.502 50.9922C25.502 48.645 23.5992 46.7422 21.252 46.7422C18.9047 46.7422 17.002 48.645 17.002 50.9922C17.002 53.3394 18.9047 55.2422 21.252 55.2422Z" stroke="white" stroke-width="8" stroke-linecap="round" stroke-linejoin="round"/>
</svg>
