<svg width="102" height="102" viewBox="0 0 102 102" fill="none" xmlns="http://www.w3.org/2000/svg">
<path d="M24.1406 37.7461V6H78.5625V37.7461" stroke="white" stroke-width="8" stroke-linecap="round" stroke-linejoin="round"/>
<path d="M24.1406 78.5547H15.0703C12.6647 78.5547 10.3576 77.5991 8.65663 75.8981C6.95562 74.1971 6 71.89 6 69.4844V46.8086C6 44.403 6.95562 42.0959 8.65663 40.3949C10.3576 38.6939 12.6647 37.7383 15.0703 37.7383H87.6329C90.0385 37.7383 92.3455 38.6939 94.0465 40.3949C95.7476 42.0959 96.7032 44.403 96.7032 46.8086V69.4844C96.7032 71.89 95.7476 74.1971 94.0465 75.8981C92.3455 77.5991 90.0385 78.5547 87.6329 78.5547H78.5625" stroke="white" stroke-width="8" stroke-linecap="round" stroke-linejoin="round"/>
<path d="M78.5625 60.4219H24.1406V96.7031H78.5625V60.4219Z" stroke="white" stroke-width="8" stroke-linecap="round" stroke-linejoin="round"/>
</svg>
