<svg width="70" height="70" viewBox="0 0 70 70" fill="none" xmlns="http://www.w3.org/2000/svg">
<path d="M34.9997 64.1654C51.108 64.1654 64.1663 51.107 64.1663 34.9987C64.1663 18.8904 51.108 5.83203 34.9997 5.83203C18.8914 5.83203 5.83301 18.8904 5.83301 34.9987C5.83301 51.107 18.8914 64.1654 34.9997 64.1654Z" stroke="#830900" stroke-width="4" stroke-linecap="round" stroke-linejoin="round"/>
<path d="M26.5117 26.2526C27.1974 24.3033 28.5509 22.6596 30.3324 21.6126C32.1139 20.5656 34.2085 20.1829 36.2451 20.5322C38.2818 20.8816 40.1291 21.9404 41.4599 23.5213C42.7906 25.1021 43.519 27.1029 43.5159 29.1693C43.5159 35.0026 34.7659 37.9193 34.7659 37.9193" stroke="#830900" stroke-width="4" stroke-linecap="round" stroke-linejoin="round"/>
<path d="M35 49.582H35.0292" stroke="#830900" stroke-width="4" stroke-linecap="round" stroke-linejoin="round"/>
</svg>
