<svg width="55" height="55" viewBox="0 0 55 55" fill="none" xmlns="http://www.w3.org/2000/svg">
<path d="M36.6663 36.6667L27.4997 27.5L18.333 36.6667" stroke="black" stroke-width="2" stroke-linecap="round" stroke-linejoin="round"/>
<path d="M27.5 27.5V48.125" stroke="black" stroke-width="2" stroke-linecap="round" stroke-linejoin="round"/>
<path d="M46.726 42.144C48.9611 40.9254 50.7268 38.9972 51.7444 36.6637C52.762 34.3302 52.9735 31.7243 52.3456 29.2572C51.7177 26.7902 50.286 24.6024 48.2767 23.0394C46.2673 21.4763 43.7946 20.6269 41.2489 20.6252H38.3614C37.6677 17.9422 36.3749 15.4514 34.58 13.34C32.7851 11.2286 30.535 9.55155 27.9987 8.43495C25.4624 7.31835 22.706 6.79126 19.9366 6.89329C17.1673 6.99532 14.4572 7.72383 12.0099 9.02404C9.56265 10.3243 7.442 12.1623 5.80738 14.4001C4.17276 16.6379 3.0667 19.2171 2.57237 21.9438C2.07803 24.6706 2.20828 27.4739 2.95332 30.1431C3.69836 32.8123 5.0388 35.2778 6.87387 37.3544" stroke="black" stroke-width="2" stroke-linecap="round" stroke-linejoin="round"/>
<path d="M36.6663 36.6667L27.4997 27.5L18.333 36.6667" stroke="black" stroke-width="2" stroke-linecap="round" stroke-linejoin="round"/>
</svg>
