<svg width="70" height="70" viewBox="0 0 70 70" fill="none" xmlns="http://www.w3.org/2000/svg">
<path d="M30.0123 11.2611L5.30809 52.5028C4.79875 53.3849 4.52924 54.3849 4.52639 55.4035C4.52354 56.422 4.78744 57.4236 5.29183 58.3085C5.79623 59.1934 6.52354 59.9308 7.4014 60.4474C8.27927 60.9639 9.27709 61.2416 10.2956 61.2528H59.7039C60.7224 61.2416 61.7202 60.9639 62.5981 60.4474C63.476 59.9308 64.2033 59.1934 64.7077 58.3085C65.2121 57.4236 65.476 56.422 65.4731 55.4035C65.4703 54.3849 65.2008 53.3849 64.6914 52.5028L39.9873 11.2611C39.4673 10.4039 38.7352 9.69523 37.8616 9.20337C36.988 8.71152 36.0023 8.45312 34.9998 8.45312C33.9972 8.45313 33.0116 8.71152 32.1379 9.20337C31.2643 9.69523 30.5322 10.4039 30.0123 11.2611V11.2611Z" stroke="#830900" stroke-width="4" stroke-linecap="round" stroke-linejoin="round"/>
<path d="M35 26.25V37.9167" stroke="#830900" stroke-width="4" stroke-linecap="round" stroke-linejoin="round"/>
<path d="M35 49.582H35.03" stroke="#830900" stroke-width="4" stroke-linecap="round" stroke-linejoin="round"/>
</svg>
